<svg width="200" height="200" viewBox="0 0 200 200" xmlns="http://www.w3.org/2000/svg">
  <!-- Center circle -->
  <circle cx="100" cy="100" r="20" fill="#FFD700" />
  
  <!-- Inner petals -->
  <path d="M100,80 C120,60 130,40 100,20 C70,40 80,60 100,80 Z" fill="#FF6B8B" />
  <path d="M120,100 C140,80 160,70 180,100 C160,130 140,120 120,100 Z" fill="#FF6B8B" />
  <path d="M100,120 C120,140 130,160 100,180 C70,160 80,140 100,120 Z" fill="#FF6B8B" />
  <path d="M80,100 C60,80 40,70 20,100 C40,130 60,120 80,100 Z" fill="#FF6B8B" />
  
  <!-- Outer petals -->
  <path d="M100,70 C125,45 135,20 100,10 C65,20 75,45 100,70 Z" fill="#FF9BAD" opacity="0.9" />
  <path d="M130,100 C155,75 180,65 190,100 C180,135 155,125 130,100 Z" fill="#FF9BAD" opacity="0.9" />
  <path d="M100,130 C125,155 135,180 100,190 C65,180 75,155 100,130 Z" fill="#FF9BAD" opacity="0.9" />
  <path d="M70,100 C45,75 20,65 10,100 C20,135 45,125 70,100 Z" fill="#FF9BAD" opacity="0.9" />
  
  <!-- Diagonal outer petals -->
  <path d="M115,85 C145,55 165,35 145,55 C125,75 115,85 115,85 Z" fill="#FF9BAD" opacity="0.8" />
  <path d="M115,115 C145,145 165,165 145,145 C125,125 115,115 115,115 Z" fill="#FF9BAD" opacity="0.8" />
  <path d="M85,115 C55,145 35,165 55,145 C75,125 85,115 85,115 Z" fill="#FF9BAD" opacity="0.8" />
  <path d="M85,85 C55,55 35,35 55,55 C75,75 85,85 85,85 Z" fill="#FF9BAD" opacity="0.8" />
</svg>