<?xml version="1.0" encoding="UTF-8"?>
<svg width="32" height="32" viewBox="0 0 32 32" xmlns="http://www.w3.org/2000/svg">
  <!-- Simplified Lotus for Favicon -->
  <!-- Main Petal -->
  <path d="M16,4 C19,8 22,12 22,18 C22,20 21,22 16,22 C11,22 10,20 10,18 C10,12 13,8 16,4 Z" fill="#8B5338"/>
  
  <!-- Side Petals -->
  <path d="M10,7 C12,11 12,16 10,19 C9,20 8,21 5,20 C4,19 3,18 4,16 C5,12 8,9 10,7 Z" fill="#996D55"/>
  <path d="M22,7 C20,11 20,16 22,19 C23,20 24,21 27,20 C28,19 29,18 28,16 C27,12 24,9 22,7 Z" fill="#996D55"/>
  
  <!-- Inner Petal -->
  <path d="M16,8 C17,10 19,13 19,17 C19,18 18,20 16,20 C14,20 13,18 13,17 C13,13 15,10 16,8 Z" fill="#CBA672"/>
  
  <!-- Center -->
  <circle cx="16" cy="16" r="3" fill="#66565A"/>
  <circle cx="16" cy="16" r="1.5" fill="#6B7E8B"/>
</svg>
